<?xml version="1.0" encoding="utf-8"?>
<!-- Generator: Adobe Illustrator 25.2.3, SVG Export Plug-In . SVG Version: 6.00 Build 0)  -->
<svg version="1.1" id="Layer_1" xmlns="http://www.w3.org/2000/svg" xmlns:xlink="http://www.w3.org/1999/xlink" x="0px" y="0px"
	 viewBox="0 0 6133.7 2446.2" style="enable-background:new 0 0 6133.7 2446.2;" xml:space="preserve">
<style type="text/css">
	.st0{fill:#F4A52C;}
	.st1{fill:url(#SVGID_1_);}
	.st2{fill:#E63A2A;}
	.st3{fill:url(#SVGID_2_);}
	.st4{fill:url(#SVGID_3_);}
	.st5{fill:url(#SVGID_4_);}
</style>
<rect x="225.9" y="-1087.8" class="st0" width="167.3" height="133.4"/>
<linearGradient id="SVGID_1_" gradientUnits="userSpaceOnUse" x1="458.4706" y1="-1021.1177" x2="625.7647" y2="-1021.1177">
	<stop  offset="0" style="stop-color:#F4A52C"/>
	<stop  offset="1" style="stop-color:#E63A2A"/>
</linearGradient>
<rect x="458.5" y="-1087.8" class="st1" width="167.3" height="133.4"/>
<rect y="-1087.8" class="st2" width="167.3" height="133.4"/>
<g>
	<g>
		<g>
			<path d="M1736.6,1120c0-92.5,68.7-163.4,163.4-163.4c71.8,0,132.9,44.9,151.3,110.4c1.8,7.6-2.2,12.6-9.9,12.6h-53
				c-6.3,0-9.9-3.1-12.6-9c-12.6-27.4-41.7-44-75.9-44c-55.7,0-91.6,37.3-91.6,93.4c0,56.1,35.9,93.4,91.6,93.4
				c34.1,0,63.3-16.6,75.9-44c2.7-5.8,6.3-9,12.6-9h53c7.6,0,11.7,4.5,9.9,11.7c-17.5,65.5-79,111.3-151.3,111.3
				C1805.3,1283.4,1736.6,1212.5,1736.6,1120z"/>
			<path d="M2280.6,1134.9v131.1c0,7.2-4,11.2-11.2,11.2h-44.9c-7.2,0-11.2-4-11.2-11.2v-125.2c0-22.4-13-32.3-30.1-32.3
				c-20.2,0-32.8,11.2-32.8,37.7v119.8c0,7.2-4,11.2-11.2,11.2h-44.9c-7.2,0-11.2-4-11.2-11.2V974.2c0-7.2,4-11.2,11.2-11.2h44.9
				c7.2,0,11.2,4,11.2,11.2v99c10.5-15.6,29.7-26.8,58.3-26.8C2250.5,1046.4,2280.6,1078.7,2280.6,1134.9z"/>
			<path d="M2312.9,1164.9c0-66.9,53-118.5,118.9-118.5c66,0,118.9,51.6,118.9,118.5c0,66.9-53,118.5-118.9,118.5
				C2365.8,1283.4,2312.9,1231.8,2312.9,1164.9z M2483.4,1164.9c0-31.9-22.4-53-51.6-53c-29.2,0-51.6,21.1-51.6,53
				c0,31.9,22.4,53,51.6,53C2461,1217.9,2483.4,1196.8,2483.4,1164.9z"/>
			<path d="M2577.7,1164.9c0-66.9,53-118.5,118.9-118.5c66,0,118.9,51.6,118.9,118.5c0,66.9-53,118.5-118.9,118.5
				C2630.7,1283.4,2577.7,1231.8,2577.7,1164.9z M2748.2,1164.9c0-31.9-22.4-53-51.6-53c-29.2,0-51.6,21.1-51.6,53
				c0,31.9,22.4,53,51.6,53C2725.8,1217.9,2748.2,1196.8,2748.2,1164.9z"/>
			<path d="M3029.2,1209.8c0,51.6-44,73.6-93.4,73.6c-45.8,0-87.1-20.6-92.5-68.2c-0.9-7.6,3.6-11.7,10.8-11.7h44
				c6.7,0,9,3.6,12.1,9.4c3.6,7.6,12.1,12.1,25.6,12.1c18.9,0,26-6.3,26-15.3c0-32.3-117.1-2.7-117.1-89.8c0-50.7,44-73.6,91.1-73.6
				c41.7,0,82.6,20.6,88,68.2c0.9,7.6-3.6,11.7-10.8,11.7h-44c-6.7,0-9-3.6-12.1-9.9c-3.1-7.2-10.8-11.7-21.1-11.7
				c-16.6,0-23.8,6.3-23.8,15.3C2912.1,1153.3,3029.2,1122.3,3029.2,1209.8z"/>
			<path d="M3287.3,1164.9c0,5.8-0.4,11.2-0.9,16.6c-0.9,7.2-5.4,10.3-12.1,10.3h-54.8h-95.1c8.2,26.7,29.1,37.3,52.5,37.3
				c12.6,0,25.1-4.5,33.2-11.2c4.5-3.6,8.1-5.8,13.9-5.8l43.1-0.4c8.1,0,12.6,5.4,9,12.6c-17.5,39-54.3,59.2-100.1,59.2
				c-74.5,0-122.1-51.6-122.1-118.5c0-66.9,49.4-118.5,120.3-118.5C3239.7,1046.4,3287.3,1097.2,3287.3,1164.9z M3220.3,1140.7
				c-6.9-25.5-26.7-34.6-46.5-34.6c-25.2,0-42.7,12.2-49.6,34.6H3220.3z"/>
			<path d="M3753.2,974.2v291.7c0,7.2-4,11.2-11.2,11.2h-49.4c-7.2,0-11.2-4-11.2-11.2v-181.4l-57,135.2c-2.2,5.8-6.7,8.5-13,8.5
				h-30.5c-6.3,0-10.8-2.7-13-8.5l-57-135.2v181.4c0,7.2-4,11.2-11.2,11.2h-49.4c-7.2,0-11.2-4-11.2-11.2V974.2
				c0-7.2,4-11.2,11.2-11.2h49.4h10.8c6.3,0,10.8,2.7,13,8.5l72.7,172.8l72.7-172.8c2.2-5.8,6.7-8.5,13-8.5h36.4h23.8
				C3749.2,962.9,3753.2,967,3753.2,974.2z"/>
			<path d="M3947.1,1052.7h48.5c8.1,0,12.1,4.5,9.4,12.6l-96.9,292.6c-1.8,6.3-6.7,9-13,9h-48.5c-8.1,0-12.1-4.5-9.4-12.6l26.9-80.8
				l-79-207.8c-2.7-7.6,0.9-13,9-13h48.5c6.3,0,10.3,3.1,12.6,9l42.6,118.9l36.8-118.5C3936.3,1055.9,3940.8,1052.7,3947.1,1052.7z"
				/>
			<path d="M4377.1,1070.7c0,59.7-48,107.7-110,107.7H4220v87.5c0,7.2-4,11.2-11.2,11.2h-49.4c-7.2,0-11.2-4-11.2-11.2V974.2
				c0-7.2,4-11.2,11.2-11.2h60.6h47.1C4329,962.9,4377.1,1011,4377.1,1070.7z M4305.3,1070.7c0-22.9-16.2-40.4-38.2-40.4H4220v80.8
				h47.1C4289.1,1111.1,4305.3,1093.6,4305.3,1070.7z"/>
			<path d="M4388.3,1164.9c0-66.9,53-118.5,118.9-118.5c66,0,118.9,51.6,118.9,118.5c0,66.9-53,118.5-118.9,118.5
				C4441.3,1283.4,4388.3,1231.8,4388.3,1164.9z M4558.8,1164.9c0-31.9-22.4-53-51.6-53c-29.2,0-51.6,21.1-51.6,53
				c0,31.9,22.4,53,51.6,53C4536.4,1217.9,4558.8,1196.8,4558.8,1164.9z"/>
			<path d="M4942.6,1052.7c8.1,0,11.7,4.9,9.4,12.6l-64.6,202.4c-1.8,6.3-6.7,9.4-13,9.4h-37.7h-5.4c-6.3,0-11.2-3.1-13-9.4
				l-23.8-74.7l-23.7,74.7c-1.8,6.3-6.7,9.4-13,9.4h-28.3h-14.8c-6.3,0-11.2-3.1-13-9.4l-64.6-202.4c-2.2-7.6,1.3-12.6,9.4-12.6
				h48.5c6.3,0,10.8,2.7,12.6,9.4l34.9,130.1l25.5-82.5l-14.2-44.5c-2.2-7.6,1.3-12.6,9.4-12.6h35c6.3,0,10.8,3.1,12.6,9.4l38,122.5
				l32.9-122.5c1.8-6.7,5.8-9.4,12.6-9.4H4942.6L4942.6,1052.7z"/>
			<path d="M5200.7,1164.9c0,5.8-0.4,11.2-0.9,16.6c-0.9,7.2-5.4,10.3-12.1,10.3h-54.8h-95.1c8.2,26.7,29.1,37.3,52.5,37.3
				c12.6,0,25.1-4.5,33.2-11.2c4.5-3.6,8.1-5.8,13.9-5.8l43.1-0.4c8.1,0,12.6,5.4,9,12.6c-17.5,39-54.3,59.2-100.1,59.2
				c-74.5,0-122.1-51.6-122.1-118.5c0-66.9,49.4-118.5,120.3-118.5C5153.1,1046.4,5200.7,1097.2,5200.7,1164.9z M5133.7,1140.7
				c-6.9-25.5-26.7-34.6-46.5-34.6c-25.2,0-42.7,12.2-49.6,34.6H5133.7z"/>
			<path d="M5351.9,1049.1c7.6-1.3,11.7,3.6,11.7,10.8v53c0,7.2-3.1,10.8-9,10.8c-25.1-0.9-49.4,11.7-49.4,47.6v94.7
				c0,7.2-4,11.2-11.2,11.2h-44.9c-7.2,0-11.2-4-11.2-11.2v-202c0-7.2,4-11.2,11.2-11.2h44.9c7.2,0,11.2,4,11.2,11.2v24.3
				C5312,1065.7,5329.6,1052.5,5351.9,1049.1L5351.9,1049.1z"/>
		</g>
	</g>
	<g>
		<g>
			<linearGradient id="SVGID_2_" gradientUnits="userSpaceOnUse" x1="787.6268" y1="1253.0005" x2="1495.8793" y2="1253.0005">
				<stop  offset="0" style="stop-color:#F4A52C"/>
				<stop  offset="1" style="stop-color:#E63A2A"/>
			</linearGradient>
			<path class="st3" d="M1256.4,1197.1c0,14.5,0.2,29-0.1,43.5c-0.1,8.1,1.3,13.4,11.5,13.1c23.1-0.7,46.4,0.6,69.4-1
				c34.6-2.4,62.5-35.8,62-72c-0.5-36.3-28.8-68.3-63.8-70.3c-22.5-1.3-45.1-0.1-67.6-0.6c-8.9-0.2-14,2.8-13,12.3
				c0.1,1.3,0.3,2.4,0.6,3.7c6.8,36.6-9.5,64.1-31.3,92.1c-63.5,81.7-124.8,165-186.9,247.8c-15.2,20.2-15.2,20.2-29.7,0.7
				c-37.6-50.6-75.2-101.2-113-151.7c-2.2-2.9-3.6-7-9.8-7.1c-1.5,14.7,3.5,30.3-12,42.7c-21.8,17.3-44.7,29.7-72.2,34.2
				c-15.5,2.5-12.7-8.1-12.7-16.7c-0.1-76.5-0.1-153.1-0.1-229.6c0-37.1,0-79.5,0-117.7c0-2.1,2.7-3.1,4-1.4c3.5,4.3,6.9,8.5,9,11.4
				c70.3,93.5,140.6,187,210.3,280.9c9.5,12.8,12.8,12.4,22.2-0.7c37.2-51.6,75.8-102.2,114.6-152.6c8.4-10.9,12-21.7,11.7-35.3
				c-0.8-31.5-0.2-63.1-0.2-94.6c0-7.1-1.1-14.6,10.1-14.3c64.3,2,129-6.4,192.8,4.1c74,12.2,128.4,79.9,133.3,154.4
				c6.3,94.8-71.2,177.1-167.9,177.3c-18.7,0.1-37.4,0.8-56-0.2c-12.6-0.7-16.8,3.2-16.6,16.1c0.8,35.4-0.9,70.9,0.8,106.2
				c0.9,18.6-5.8,22.8-22.7,21.7c-19.9-1.3-39.9-0.6-59.9-0.2c-9.1,0.2-14.3-1.4-14.2-12.4c0.1-50.2-0.4-100.4-0.8-150.6
				c-0.1-14,11.7-21,18.5-30.6c24.5-35,50.3-69,75.6-103.4C1253.7,1194.7,1256.6,1190.1,1256.4,1197.1z"/>
			<linearGradient id="SVGID_3_" gradientUnits="userSpaceOnUse" x1="541.3262" y1="1253.9072" x2="883.9676" y2="1253.9072">
				<stop  offset="0" style="stop-color:#F4A52C"/>
				<stop  offset="1" style="stop-color:#E63A2A"/>
			</linearGradient>
			<path class="st4" d="M884,1360.7c0,33.9,0,68.4,0,102.8c0,10.7-9.3,11.2-15.9,13.9c-89.1,35.8-193.3,12.2-260-59.9
				c-66.5-71.9-83.4-156.6-50.2-246.8c33.3-90.4,101.8-142.7,198.4-156.2c14-2,21.3,0.3,20,17.2c-1.6,20.5-0.9,41.2-0.2,61.8
				c0.4,11.4-2,16-15.1,18c-69.3,10.2-119,67.4-120.6,136.7c-1.7,72.5,44.8,133,114.2,146.2c39.4,7.5,76.8,0.8,110.1-23.1
				c5.2-3.8,10.3-7.7,15.5-11.4C881.1,1359.1,884,1357.7,884,1360.7z"/>
		</g>
	</g>
	<g>
		<g>
			<path d="M2295.6,1548.1l58.1-140.9h23l2.4,140.9l49.4-140.9h31.1l-74.1,193.2h-30.2l-1.5-131.4l-55.1,131.4h-30.3l2.5-193.2h31.1
				L2295.6,1548.1z"/>
			<path d="M2476.6,1602.4c-16.6,0-28.5-4.6-35.9-13.8c-7.3-9.2-9.3-22.3-6-39.2l6.6-33.6c3.5-17.6,10.6-31.3,21.3-40.9
				c10.7-9.7,24.1-14.5,40.3-14.5c15.5,0,26.5,5.2,33.1,15.5c6.5,10.4,7.9,25,4.2,44l-4.6,23.4H2458l4.5-23h48.8l1.8-8.5
				c1.6-7.5,0.9-13.4-2.1-17.7c-3-4.3-7.5-6.4-13.5-6.4c-7,0-12.9,2.3-17.6,6.9c-4.8,4.6-8,11.2-9.7,19.7l-7.1,35.9
				c-1.5,7.8-0.7,13.8,2.5,18.1c3.2,4.3,8.5,6.4,15.9,6.4c5,0,9.5-1.2,13.4-3.7c3.9-2.5,7-6,9.2-10.5l24.6,9.4
				c-4.8,10.6-11.6,18.7-20.4,24.2C2499.5,1599.7,2488.9,1602.4,2476.6,1602.4z"/>
			<path d="M2652.2,1602.8c-12.1,0-20.6-4.2-25.5-12.7c-4.9-8.5-5.8-20.5-2.7-36.1l8.9-44.8c3.1-15.7,8.8-27.8,17-36.3
				c8.2-8.5,18.3-12.8,30.2-12.8c6.9,0,12.9,2.2,17.8,6.5c5,4.3,8.5,10.5,10.5,18.3l-7.5,23.9c0.9-4.5,0.9-8.3,0.1-11.4
				c-0.9-3.1-2.5-5.4-4.9-7c-2.4-1.6-5.6-2.5-9.6-2.5c-6,0-11.1,2-15.3,6c-4.2,4-7,9.7-8.4,16.9l-8.2,41.6
				c-1.4,7.1-0.8,12.6,1.8,16.4c2.6,3.9,6.9,5.8,12.9,5.8c4,0,7.5-0.8,10.6-2.4c3.1-1.6,5.6-3.9,7.7-7c2.1-3.1,3.5-6.8,4.4-11.2
				l-3,24.6c-3.9,7.2-9,13-15.4,17.4C2667.1,1600.6,2660,1602.8,2652.2,1602.8z M2682.7,1600.4l38.2-193.2h30.4l-38.2,193.2H2682.7z
				"/>
			<path d="M2791.8,1602.4c-15.6,0-26.9-4.3-33.8-12.9c-6.9-8.6-8.9-20.7-5.8-36.4l8.7-44.1c3.1-15.6,9.8-27.6,20.1-36.1
				c10.3-8.5,23.3-12.7,38.9-12.7c15.7,0,27,4.2,33.9,12.7c6.9,8.5,8.8,20.5,5.8,36.1l-8.8,44.5c-3.1,15.6-9.8,27.6-20,36.1
				C2820.5,1598.2,2807.5,1602.4,2791.8,1602.4z M2797.6,1573.7c6,0,11-1.9,15.1-5.6c4-3.8,6.7-9,8-15.6l8.4-42.5
				c1.3-6.6,0.7-11.8-1.9-15.4c-2.6-3.6-6.9-5.4-12.9-5.4c-6,0-11.1,1.8-15.2,5.4c-4.1,3.6-6.8,8.8-8.1,15.4l-8.4,42.5
				c-1.3,6.6-0.7,11.8,2,15.6C2787.3,1571.8,2791.6,1573.7,2797.6,1573.7z"/>
			<path d="M2984,1602.4c-16.6,0-28.5-4.4-35.7-13.2c-7.3-8.8-9.3-21.3-6.1-37.4l7.9-40.1c3.2-16.3,10.2-28.9,20.9-37.9
				c10.7-8.9,24.4-13.4,41.1-13.4c13.6,0,23.8,3.1,30.5,9.2c6.7,6.1,9.8,15.4,9.2,27.9l-29.7,9.3c0-6.1-1.4-10.6-4-13.6
				c-2.7-2.9-6.5-4.4-11.6-4.4c-6.7,0-12.4,2.1-17,6.2c-4.6,4.2-7.6,9.9-9.1,17.3l-7.7,38.8c-1.4,7.3-0.7,12.9,2.3,16.9
				c3,4,7.8,6,14.6,6c5,0,9.5-1.4,13.3-4.3c3.8-2.9,6.8-7.2,9.1-13l26,9.6c-4.3,12.2-10.9,21.3-20,27.2
				C3009,1599.5,2997.6,1602.4,2984,1602.4z"/>
			<path d="M3100.5,1602.4c-15.6,0-26.9-4.3-33.8-12.9c-6.9-8.6-8.9-20.7-5.8-36.4l8.7-44.1c3.1-15.6,9.8-27.6,20.1-36.1
				c10.3-8.5,23.3-12.7,38.9-12.7c15.7,0,27,4.2,33.9,12.7c6.9,8.5,8.8,20.5,5.8,36.1l-8.8,44.5c-3.1,15.6-9.8,27.6-20,36.1
				C3129.2,1598.2,3116.2,1602.4,3100.5,1602.4z M3106.3,1573.7c6,0,11-1.9,15.1-5.6c4-3.8,6.7-9,8-15.6l8.4-42.5
				c1.3-6.6,0.7-11.8-1.9-15.4c-2.6-3.6-6.9-5.4-12.9-5.4c-6,0-11.1,1.8-15.2,5.4c-4.1,3.6-6.8,8.8-8.1,15.4l-8.4,42.5
				c-1.3,6.6-0.7,11.8,2,15.6C3096,1571.8,3100.3,1573.7,3106.3,1573.7z"/>
			<path d="M3180.6,1600.4l27.3-137.9h30.6l-27.3,137.9H3180.6z M3249.9,1600.4l17.8-90.1c1.4-7.1,0.8-12.4-1.9-16.1
				c-2.6-3.6-7.2-5.4-13.5-5.4c-6.2,0-11.3,1.8-15.2,5.4c-3.9,3.6-6.6,8.7-7.9,15.3l1.8-23.1c5.2-8.6,11.1-15.1,17.8-19.5
				c6.7-4.4,13.9-6.6,21.6-6.6c12,0,20.5,4,25.5,12c4.9,8,5.9,19.4,3,34.2l-18.6,93.9H3249.9z"/>
			<path d="M3313.4,1600.4l27.3-137.9h30.6l-27.3,137.9H3313.4z M3382.6,1600.4l17.8-90.1c1.4-7.1,0.8-12.4-1.9-16.1
				c-2.6-3.6-7.2-5.4-13.5-5.4c-6.2,0-11.3,1.8-15.2,5.4c-3.9,3.6-6.6,8.7-7.9,15.3l1.8-23.1c5.2-8.6,11.1-15.1,17.8-19.5
				c6.7-4.4,13.9-6.6,21.6-6.6c12,0,20.5,4,25.5,12c4.9,8,5.9,19.4,3,34.2l-18.6,93.9H3382.6z"/>
			<path d="M3494.8,1602.4c-16.6,0-28.5-4.6-35.9-13.8c-7.3-9.2-9.3-22.3-6-39.2l6.6-33.6c3.5-17.6,10.6-31.3,21.3-40.9
				c10.7-9.7,24.1-14.5,40.3-14.5c15.5,0,26.5,5.2,33.1,15.5c6.5,10.4,7.9,25,4.2,44l-4.6,23.4h-77.6l4.5-23h48.8l1.8-8.5
				c1.6-7.5,0.9-13.4-2.1-17.7c-3-4.3-7.5-6.4-13.5-6.4c-7,0-12.9,2.3-17.6,6.9c-4.8,4.6-8,11.2-9.7,19.7l-7.1,35.9
				c-1.5,7.8-0.7,13.8,2.5,18.1c3.2,4.3,8.5,6.4,15.9,6.4c5,0,9.5-1.2,13.4-3.7c3.9-2.5,7-6,9.2-10.5l24.6,9.4
				c-4.8,10.6-11.6,18.7-20.4,24.2C3517.7,1599.7,3507.1,1602.4,3494.8,1602.4z"/>
			<path d="M3620.5,1602.4c-16.6,0-28.5-4.4-35.7-13.2c-7.2-8.8-9.3-21.3-6.1-37.4l7.9-40.1c3.2-16.3,10.2-28.9,20.9-37.9
				c10.7-8.9,24.4-13.4,41.1-13.4c13.6,0,23.8,3.1,30.5,9.2c6.7,6.1,9.8,15.4,9.2,27.9l-29.7,9.3c0-6.1-1.4-10.6-4-13.6
				c-2.7-2.9-6.5-4.4-11.6-4.4c-6.7,0-12.4,2.1-17,6.2c-4.6,4.2-7.6,9.9-9.1,17.3l-7.7,38.8c-1.4,7.3-0.7,12.9,2.3,16.9
				c3,4,7.8,6,14.6,6c5,0,9.5-1.4,13.3-4.3c3.8-2.9,6.8-7.2,9.1-13l26,9.6c-4.3,12.2-10.9,21.3-20,27.2
				C3645.5,1599.5,3634.1,1602.4,3620.5,1602.4z"/>
			<path d="M3728.2,1601.1c-12,0-20-3.1-24.1-9.4c-4.1-6.3-5-15.3-2.7-27.1l28.1-142.2h30.4l-27.4,138.7c-0.7,3.4-0.5,6,0.6,7.9
				c1.1,1.9,3,2.9,5.7,2.9h10.5l-5.8,29.2H3728.2z M3702.7,1489.9l5.4-27.4h63l-5.4,27.4H3702.7z"/>
			<path d="M3770.5,1600.4l27.3-137.9h30.2l-27.3,137.9H3770.5z M3802.6,1437.9l6-30.2h30.2l-6,30.2H3802.6z"/>
			<path d="M3878.3,1602.4c-15.6,0-26.9-4.3-33.8-12.9c-6.9-8.6-8.9-20.7-5.8-36.4l8.7-44.1c3.1-15.6,9.8-27.6,20.1-36.1
				c10.3-8.5,23.3-12.7,38.9-12.7c15.7,0,27,4.2,33.9,12.7c6.9,8.5,8.8,20.5,5.8,36.1l-8.8,44.5c-3.1,15.6-9.8,27.6-20,36.1
				C3906.9,1598.2,3894,1602.4,3878.3,1602.4z M3884.1,1573.7c6,0,11-1.9,15.1-5.6c4-3.8,6.7-9,8-15.6l8.4-42.5
				c1.3-6.6,0.7-11.8-1.9-15.4c-2.6-3.6-6.9-5.4-12.9-5.4c-6,0-11.1,1.8-15.2,5.4c-4.1,3.6-6.8,8.8-8.1,15.4l-8.4,42.5
				c-1.3,6.6-0.7,11.8,2,15.6C3873.7,1571.8,3878.1,1573.7,3884.1,1573.7z"/>
			<path d="M3958.4,1600.4l27.3-137.9h30.6l-27.3,137.9H3958.4z M4027.6,1600.4l17.8-90.1c1.4-7.1,0.8-12.4-1.9-16.1
				c-2.6-3.6-7.2-5.4-13.5-5.4c-6.2,0-11.3,1.8-15.2,5.4c-3.9,3.6-6.6,8.7-7.9,15.3l1.8-23.1c5.2-8.6,11.1-15.1,17.8-19.5
				c6.7-4.4,13.9-6.6,21.6-6.6c12,0,20.5,4,25.5,12c4.9,8,5.9,19.4,3,34.2l-18.6,93.9H4027.6z"/>
			<path d="M4155.1,1600.4l27.3-137.9h31.1l-27.3,137.9H4155.1z M4246.9,1494c-1.2-1.2-2.8-2-4.8-2.6c-2-0.6-4.4-0.9-7.3-0.9
				c-8.5,0-15.6,2.4-21.2,7.2c-5.6,4.8-9.3,11.4-11.1,19.9l3.4-31.1c5.7-8.2,12.3-14.7,19.7-19.3c7.4-4.7,15.1-7,23.1-7
				c2.9,0,5.5,0.5,7.8,1.4c2.3,0.9,4.2,2.3,5.6,4.1L4246.9,1494z"/>
			<path d="M4254.6,1600.4l27.3-137.9h30.2l-27.3,137.9H4254.6z M4286.7,1437.9l6-30.2h30.2l-6,30.2H4286.7z"/>
			<path d="M4349,1656.5c-12.8,0-22.5-2.9-29.1-8.6c-6.5-5.8-9.5-14.4-8.8-25.8l30.6-8.9c0.2,5.2,1.6,9.1,4.1,11.8
				c2.5,2.6,6.2,3.9,10.9,3.9c5.8,0,10.8-1.8,15-5.4c4.1-3.6,6.8-8.6,8.1-15.1l28.8-145.9h30.4l-28.5,144.2
				c-3.2,15.9-10.1,28.2-20.8,36.9C4379.1,1652.2,4365.5,1656.5,4349,1656.5z M4350.9,1602.7c-12,0-20.5-4.3-25.5-12.8
				c-4.9-8.5-5.9-20.4-2.8-35.7l8.9-44.9c3.1-15.7,8.8-27.8,17.1-36.3c8.3-8.5,18.4-12.8,30.2-12.8c6.9,0,12.9,2.2,17.9,6.5
				c5,4.3,8.5,10.4,10.3,18.2l-7.5,23.7c0.9-4.3,0.9-8.1,0.1-11.2c-0.8-3.1-2.4-5.4-4.9-7c-2.4-1.6-5.6-2.4-9.6-2.4
				c-6.1,0-11.2,2-15.4,5.9c-4.1,3.9-6.9,9.6-8.4,16.9l-8.3,42c-1.4,6.9-0.8,12.3,1.8,16.2c2.6,3.9,7,5.8,13.1,5.8
				c4,0,7.5-0.8,10.6-2.5c3.1-1.6,5.6-4,7.6-7c2-3.1,3.5-6.8,4.3-11.1l-3,24.5c-3.9,7.2-9,13-15.3,17.3S4358.8,1602.7,4350.9,1602.7
				z"/>
			<path d="M4444.9,1600.4l38.2-193.2h30.4l-38.2,193.2H4444.9z M4514.1,1600.4l17.8-90c1.4-7,0.8-12.3-1.9-16
				c-2.6-3.7-7.1-5.5-13.5-5.5c-6.2,0-11.3,1.8-15.3,5.2c-4,3.5-6.6,8.6-8,15.3l2-23.4c5.1-8.4,11-14.8,17.8-19.3
				c6.7-4.4,13.9-6.6,21.6-6.6c12,0,20.5,4,25.5,12c4.9,8,5.9,19.4,3,34.2l-18.6,93.9H4514.1z"/>
			<path d="M4614.4,1601.1c-12,0-20-3.1-24.1-9.4c-4.1-6.3-5-15.3-2.7-27.1l28.1-142.2h30.4l-27.4,138.7c-0.7,3.4-0.5,6,0.6,7.9
				c1.1,1.9,3,2.9,5.7,2.9h10.5l-5.8,29.2H4614.4z M4588.9,1489.9l5.4-27.4h63l-5.4,27.4H4588.9z"/>
			<path d="M4657.2,1600.4l6.1-31.1h31l-6.1,31.1H4657.2z M4667.8,1549.1l28.1-141.9h30.2l-28.1,141.9H4667.8z"/>
		</g>
	</g>
	<linearGradient id="SVGID_4_" gradientUnits="userSpaceOnUse" x1="1352.2281" y1="786.3804" x2="1870.6644" y2="1761.4174">
		<stop  offset="0" style="stop-color:#000000;stop-opacity:0"/>
		<stop  offset="0.4888" style="stop-color:#000000"/>
		<stop  offset="1" style="stop-color:#000000;stop-opacity:0"/>
	</linearGradient>
	<rect x="1608" y="650.4" class="st5" width="6.8" height="1247.1"/>
</g>
<g>
	<g>
		<text transform="matrix(1 0 0 1 1326.6443 -1484.0863)" style="font-family:'QanelasSoftDEMO-ExtraBold'; font-size:337.5131px;">Choose My Power</text>
	</g>
	<g>
		<g>
			<g>
				<path d="M1757.2-1280.3l43.7-105.9h17.3l1.8,105.9l37.1-105.9h23.4l-55.7,145.3h-22.7l-1.1-98.8l-41.4,98.8h-22.8l1.8-145.3
					h23.4L1757.2-1280.3z"/>
				<path d="M1902.3-1239.5c-12.5,0-21.4-3.5-27-10.4c-5.5-6.9-7-16.8-4.5-29.5l5-25.3c2.6-13.3,8-23.5,16-30.8
					c8.1-7.3,18.2-10.9,30.3-10.9c11.7,0,19.9,3.9,24.9,11.7c4.9,7.8,6,18.8,3.2,33.1l-3.5,17.6h-58.4l3.4-17.3h36.7l1.4-6.4
					c1.2-5.7,0.7-10.1-1.6-13.3c-2.2-3.2-5.6-4.8-10.1-4.8c-5.3,0-9.7,1.7-13.3,5.2c-3.6,3.5-6,8.4-7.3,14.8l-5.3,27
					c-1.2,5.9-0.5,10.4,1.9,13.6c2.4,3.2,6.4,4.8,11.9,4.8c3.8,0,7.2-0.9,10.1-2.8c2.9-1.9,5.2-4.5,6.9-7.9l18.5,7.1
					c-3.6,8-8.7,14.1-15.3,18.2C1919.5-1241.5,1911.5-1239.5,1902.3-1239.5z"/>
				<path d="M2034.3-1239.2c-9.1,0-15.5-3.2-19.2-9.5c-3.7-6.4-4.3-15.4-2-27.1l6.7-33.7c2.3-11.8,6.6-20.9,12.8-27.3
					c6.2-6.4,13.8-9.6,22.7-9.6c5.2,0,9.7,1.6,13.4,4.9c3.8,3.3,6.4,7.9,7.9,13.8l-5.7,18c0.7-3.4,0.7-6.2,0-8.5
					c-0.6-2.3-1.9-4.1-3.7-5.3c-1.8-1.2-4.2-1.8-7.2-1.8c-4.5,0-8.4,1.5-11.5,4.5c-3.1,3-5.2,7.3-6.3,12.7l-6.2,31.3
					c-1.1,5.3-0.6,9.4,1.4,12.3c2,2.9,5.2,4.3,9.7,4.3c3,0,5.6-0.6,8-1.8c2.3-1.2,4.2-3,5.8-5.3c1.6-2.3,2.7-5.1,3.3-8.4l-2.3,18.5
					c-2.9,5.4-6.8,9.8-11.6,13.1C2045.5-1240.8,2040.2-1239.2,2034.3-1239.2z M2057.2-1241l28.7-145.3h22.9l-28.7,145.3H2057.2z"/>
				<path d="M2139.3-1239.5c-11.7,0-20.2-3.2-25.4-9.7c-5.2-6.5-6.7-15.6-4.3-27.4l6.6-33.2c2.3-11.7,7.4-20.8,15.1-27.1
					c7.8-6.4,17.5-9.5,29.2-9.5c11.8,0,20.3,3.2,25.5,9.5c5.2,6.4,6.6,15.4,4.3,27.1l-6.6,33.5c-2.3,11.7-7.3,20.8-15.1,27.2
					C2160.8-1242.7,2151.1-1239.5,2139.3-1239.5z M2143.6-1261.1c4.5,0,8.3-1.4,11.3-4.2c3-2.8,5-6.7,6-11.7l6.3-32
					c1-5,0.5-8.9-1.4-11.6c-1.9-2.7-5.2-4.1-9.7-4.1c-4.5,0-8.3,1.4-11.4,4.1c-3.1,2.7-5.1,6.6-6.1,11.6l-6.3,32
					c-1,5-0.5,8.9,1.5,11.7C2135.9-1262.5,2139.1-1261.1,2143.6-1261.1z"/>
				<path d="M2283.8-1239.5c-12.5,0-21.4-3.3-26.9-9.9c-5.5-6.6-7-16-4.6-28.1l6-30.2c2.4-12.3,7.7-21.7,15.7-28.5
					c8.1-6.7,18.3-10.1,30.9-10.1c10.3,0,17.9,2.3,22.9,6.9c5,4.6,7.3,11.6,6.9,21l-22.4,7c0-4.6-1-8-3-10.2c-2-2.2-4.9-3.3-8.7-3.3
					c-5.1,0-9.3,1.6-12.8,4.7c-3.5,3.1-5.7,7.5-6.8,13l-5.8,29.2c-1.1,5.5-0.5,9.7,1.7,12.7c2.2,3,5.9,4.5,11,4.5
					c3.8,0,7.1-1.1,10-3.2c2.9-2.2,5.1-5.4,6.9-9.7l19.6,7.2c-3.2,9.2-8.2,16-15,20.5C2302.6-1241.7,2294-1239.5,2283.8-1239.5z"/>
				<path d="M2371.4-1239.5c-11.7,0-20.2-3.2-25.4-9.7c-5.2-6.5-6.7-15.6-4.3-27.4l6.6-33.2c2.3-11.7,7.4-20.8,15.1-27.1
					c7.8-6.4,17.5-9.5,29.2-9.5c11.8,0,20.3,3.2,25.5,9.5c5.2,6.4,6.6,15.4,4.3,27.1l-6.6,33.5c-2.3,11.7-7.3,20.8-15.1,27.2
					C2393-1242.7,2383.2-1239.5,2371.4-1239.5z M2375.8-1261.1c4.5,0,8.3-1.4,11.3-4.2c3-2.8,5-6.7,6-11.7l6.3-32
					c1-5,0.5-8.9-1.4-11.6c-1.9-2.7-5.2-4.1-9.7-4.1c-4.5,0-8.3,1.4-11.4,4.1c-3.1,2.7-5.1,6.6-6.1,11.6l-6.3,32
					c-1,5-0.5,8.9,1.5,11.7C2368-1262.5,2371.2-1261.1,2375.8-1261.1z"/>
				<path d="M2431.7-1241l20.5-103.7h23l-20.5,103.7H2431.7z M2483.7-1241l13.4-67.7c1.1-5.3,0.6-9.4-1.4-12.1
					c-2-2.7-5.4-4.1-10.2-4.1c-4.7,0-8.5,1.3-11.4,4c-3,2.7-4.9,6.5-5.9,11.5l1.3-17.4c3.9-6.5,8.3-11.4,13.4-14.7
					c5.1-3.3,10.5-5,16.3-5c9.1,0,15.4,3,19.1,9c3.7,6,4.5,14.6,2.3,25.7l-14,70.6H2483.7z"/>
				<path d="M2531.5-1241l20.5-103.7h23l-20.5,103.7H2531.5z M2583.5-1241l13.4-67.7c1.1-5.3,0.6-9.4-1.4-12.1
					c-2-2.7-5.4-4.1-10.2-4.1c-4.7,0-8.5,1.3-11.4,4c-3,2.7-4.9,6.5-5.9,11.5l1.3-17.4c3.9-6.5,8.3-11.4,13.4-14.7
					c5.1-3.3,10.5-5,16.3-5c9.1,0,15.4,3,19.1,9c3.7,6,4.5,14.6,2.3,25.7l-14,70.6H2583.5z"/>
				<path d="M2667.9-1239.5c-12.5,0-21.4-3.5-27-10.4c-5.5-6.9-7-16.8-4.5-29.5l5-25.3c2.6-13.3,8-23.5,16-30.8
					c8.1-7.3,18.2-10.9,30.3-10.9c11.7,0,19.9,3.9,24.9,11.7c4.9,7.8,6,18.8,3.2,33.1l-3.5,17.6h-58.4l3.4-17.3h36.7l1.4-6.4
					c1.2-5.7,0.7-10.1-1.6-13.3c-2.2-3.2-5.6-4.8-10.1-4.8c-5.3,0-9.7,1.7-13.3,5.2c-3.6,3.5-6,8.4-7.3,14.8l-5.3,27
					c-1.2,5.9-0.5,10.4,1.9,13.6c2.4,3.2,6.4,4.8,11.9,4.8c3.8,0,7.2-0.9,10.1-2.8c2.9-1.9,5.2-4.5,6.9-7.9l18.5,7.1
					c-3.6,8-8.7,14.1-15.3,18.2C2685.1-1241.5,2677.1-1239.5,2667.9-1239.5z"/>
				<path d="M2762.4-1239.5c-12.5,0-21.4-3.3-26.9-9.9c-5.5-6.6-7-16-4.6-28.1l6-30.2c2.4-12.3,7.7-21.7,15.7-28.5
					c8.1-6.7,18.3-10.1,30.9-10.1c10.3,0,17.9,2.3,22.9,6.9c5,4.6,7.3,11.6,6.9,21l-22.4,7c0-4.6-1-8-3-10.2c-2-2.2-4.9-3.3-8.7-3.3
					c-5.1,0-9.3,1.6-12.8,4.7c-3.5,3.1-5.7,7.5-6.8,13l-5.8,29.2c-1.1,5.5-0.5,9.7,1.7,12.7c2.2,3,5.9,4.5,11,4.5
					c3.8,0,7.1-1.1,10-3.2c2.9-2.2,5.2-5.4,6.9-9.7l19.6,7.2c-3.2,9.2-8.2,16-15,20.5C2781.2-1241.7,2772.7-1239.5,2762.4-1239.5z"
					/>
				<path d="M2843.4-1240.5c-9,0-15-2.4-18.1-7.1c-3.1-4.7-3.8-11.5-2-20.4l21.1-106.9h22.9l-20.6,104.3c-0.5,2.5-0.3,4.5,0.5,5.9
					c0.8,1.4,2.3,2.1,4.3,2.1h7.9l-4.3,22H2843.4z M2824.2-1324.1l4.1-20.6h47.4l-4.1,20.6H2824.2z"/>
				<path d="M2875.2-1241l20.5-103.7h22.7l-20.5,103.7H2875.2z M2899.4-1363.2l4.5-22.7h22.7l-4.5,22.7H2899.4z"/>
				<path d="M2956.3-1239.5c-11.7,0-20.2-3.2-25.4-9.7c-5.2-6.5-6.7-15.6-4.3-27.4l6.6-33.2c2.3-11.7,7.4-20.8,15.1-27.1
					c7.8-6.4,17.5-9.5,29.2-9.5c11.8,0,20.3,3.2,25.5,9.5c5.2,6.4,6.6,15.4,4.3,27.1l-6.6,33.5c-2.3,11.7-7.3,20.8-15.1,27.2
					C2977.8-1242.7,2968-1239.5,2956.3-1239.5z M2960.6-1261.1c4.5,0,8.3-1.4,11.3-4.2c3-2.8,5-6.7,6-11.7l6.3-32
					c1-5,0.5-8.9-1.4-11.6c-1.9-2.7-5.2-4.1-9.7-4.1c-4.5,0-8.3,1.4-11.4,4.1c-3.1,2.7-5.1,6.6-6.1,11.6l-6.3,32
					c-1,5-0.5,8.9,1.5,11.7C2952.8-1262.5,2956.1-1261.1,2960.6-1261.1z"/>
				<path d="M3016.5-1241l20.5-103.7h23l-20.5,103.7H3016.5z M3068.6-1241l13.4-67.7c1.1-5.3,0.6-9.4-1.4-12.1
					c-2-2.7-5.4-4.1-10.2-4.1c-4.7,0-8.5,1.3-11.4,4c-3,2.7-4.9,6.5-5.9,11.5l1.3-17.4c3.9-6.5,8.3-11.4,13.4-14.7
					c5.1-3.3,10.5-5,16.3-5c9.1,0,15.4,3,19.1,9c3.7,6,4.5,14.6,2.3,25.7l-14,70.6H3068.6z"/>
				<path d="M3164.4-1241l20.5-103.7h23.4l-20.5,103.7H3164.4z M3233.5-1321c-0.9-0.9-2.1-1.5-3.6-1.9c-1.5-0.4-3.3-0.6-5.5-0.6
					c-6.4,0-11.7,1.8-16,5.4c-4.2,3.6-7,8.6-8.4,15l2.5-23.4c4.3-6.2,9.2-11,14.8-14.5c5.6-3.5,11.4-5.2,17.4-5.2
					c2.2,0,4.2,0.3,5.9,1c1.7,0.7,3.1,1.7,4.2,3L3233.5-1321z"/>
				<path d="M3239.2-1241l20.5-103.7h22.7l-20.5,103.7H3239.2z M3263.4-1363.2l4.5-22.7h22.7l-4.5,22.7H3263.4z"/>
				<path d="M3310.2-1198.8c-9.7,0-16.9-2.2-21.8-6.5c-4.9-4.3-7.1-10.8-6.6-19.4l23-6.7c0.2,3.9,1.2,6.9,3.1,8.8
					c1.9,2,4.6,2.9,8.2,2.9c4.4,0,8.1-1.3,11.2-4c3.1-2.7,5.1-6.5,6.1-11.3l21.7-109.7h22.9l-21.4,108.4c-2.4,12-7.6,21.2-15.6,27.7
					C3332.8-1202.1,3322.6-1198.8,3310.2-1198.8z M3311.6-1239.3c-9.1,0-15.4-3.2-19.1-9.6c-3.7-6.4-4.4-15.4-2.1-26.9l6.7-33.8
					c2.3-11.8,6.6-20.9,12.8-27.3c6.2-6.4,13.8-9.6,22.7-9.6c5.2,0,9.7,1.6,13.5,4.9c3.8,3.3,6.4,7.8,7.7,13.7l-5.6,17.8
					c0.6-3.3,0.7-6.1,0.1-8.4c-0.6-2.3-1.8-4.1-3.6-5.3c-1.8-1.2-4.2-1.8-7.2-1.8c-4.6,0-8.5,1.5-11.6,4.4c-3.1,3-5.2,7.2-6.3,12.7
					l-6.2,31.6c-1,5.2-0.6,9.3,1.4,12.2c2,2.9,5.2,4.4,9.8,4.4c3,0,5.7-0.6,8-1.8c2.3-1.2,4.2-3,5.7-5.3c1.5-2.3,2.6-5.1,3.2-8.3
					l-2.2,18.4c-2.9,5.4-6.8,9.7-11.5,13C3322.9-1240.9,3317.6-1239.3,3311.6-1239.3z"/>
				<path d="M3382.3-1241l28.7-145.3h22.9l-28.7,145.3H3382.3z M3434.4-1241l13.4-67.6c1-5.3,0.6-9.3-1.4-12
					c-2-2.8-5.4-4.1-10.2-4.1c-4.7,0-8.5,1.3-11.5,3.9c-3,2.6-5,6.5-6,11.5l1.5-17.6c3.8-6.3,8.3-11.2,13.4-14.5
					c5.1-3.3,10.5-5,16.3-5c9.1,0,15.4,3,19.1,9c3.7,6,4.5,14.6,2.3,25.7l-14,70.6H3434.4z"/>
				<path d="M3509.8-1240.5c-9,0-15-2.4-18.1-7.1c-3.1-4.7-3.8-11.5-2-20.4l21.1-106.9h22.9l-20.6,104.3c-0.5,2.5-0.3,4.5,0.5,5.9
					c0.8,1.4,2.3,2.1,4.3,2.1h7.9l-4.3,22H3509.8z M3490.6-1324.1l4.1-20.6h47.4l-4.1,20.6H3490.6z"/>
				<path d="M3542-1241l4.6-23.4h23.3l-4.6,23.4H3542z M3549.9-1279.5l21.1-106.7h22.7l-21.1,106.7H3549.9z"/>
			</g>
		</g>
	</g>
</g>
</svg>
